<svg xmlns="http://www.w3.org/2000/svg" version="1.1" xmlns:xlink="http://www.w3.org/1999/xlink" xmlns:svgjs="http://svgjs.dev/svgjs" width="1440" height="560" preserveAspectRatio="none" viewBox="0 0 1440 560"><g mask="url(&quot;#SvgjsMask1262&quot;)" fill="none"><rect width="1440" height="560" x="0" y="0" fill="url(&quot;#SvgjsLinearGradient1263&quot;)"></rect><path d="M1440 0L769.02 0L1440 181.9z" fill="rgba(255, 255, 255, .1)"></path><path d="M769.02 0L1440 181.9L1440 310.46000000000004L547.04 0z" fill="rgba(255, 255, 255, .075)"></path><path d="M547.04 0L1440 310.46000000000004L1440 400.92L412.28999999999996 0z" fill="rgba(255, 255, 255, .05)"></path><path d="M412.28999999999996 0L1440 400.92L1440 431.77000000000004L283.43999999999994 0z" fill="rgba(255, 255, 255, .025)"></path><path d="M0 560L483.33 560L0 314.64z" fill="rgba(0, 0, 0, .1)"></path><path d="M0 314.64L483.33 560L1006.05 560L0 235.54z" fill="rgba(0, 0, 0, .075)"></path><path d="M0 235.53999999999996L1006.05 560L1183.83 560L0 186.46999999999997z" fill="rgba(0, 0, 0, .05)"></path><path d="M0 186.46999999999997L1183.83 560L1342.6599999999999 560L0 109.85999999999997z" fill="rgba(0, 0, 0, .025)"></path></g><defs><mask id="SvgjsMask1262"><rect width="1440" height="560" fill="#ffffff"></rect></mask><linearGradient x1="50%" y1="0%" x2="50%" y2="100%" gradientUnits="userSpaceOnUse" id="SvgjsLinearGradient1263"><stop stop-color="rgba(0, 145, 255, 1)" offset="0"></stop><stop stop-color="rgba(8, 127, 218, 1)" offset="1"></stop></linearGradient></defs></svg>